{"title":"Blade.1998.1080p.BDRip English Hindi x264 AC3 DD.5.1 INaM","uid":9910833,"size":3366295599,"categoryP":"video","categoryS":"hd___movies","magnet":"?xt=urn:btih:e5fd308a1d5c80aa9376bb38d08b5b6c2f44c342&amp;dn=Blade.1998.1080p.BDRip+English+Hindi+x264+AC3+DD.5.1+INaM&amp;tr=udp%3A%2F%2Ftracker.openbittorrent.com%3A80&amp;tr=udp%3A%2F%2Fopen.demonii.com%3A1337&amp;tr=udp%3A%2F%2Ftracker.coppersurfer.tk%3A6969&amp;tr=udp%3A%2F%2Fexodus.desync.com%3A6969","seeders":0,"leechers":1,"uploader":"inam70","files":18,"time":1396894396,"description":"General\nUnique ID                                : 179868357157547220884300575040973154259 (0x875162B0C446AB80A5BB48AE235DA7D3)\nComplete name                            : Blade.I-III-1998-2004.1080p.BluRay.x264.DTS-HDChinaBlade.1998.1080p.BluRay.x264.DTS- (1).mkv\nFormat                                   : Matroska\nFormat version                           : Version 4 / Version 2\nFile size                                : 3.11 GiB\nDuration                                 : 2h 0mn\nOverall bit rate mode                    : Variable\nOverall bit rate                         : 3 706 Kbps\nMovie name                               : DD5.1 INaM\nEncoded date                             : UTC 2014-04-07 09:54:17\nWriting application                      : mkvmerge v6.8.0 ('Theme for Great Cities') 32bit built on Mar  2 2014 21:27:07\nWriting library                          : libebml v1.3.0 + libmatroska v1.4.1\n\nVideo\nID                                       : 1\nFormat                                   : AVC\nFormat/Info                              : Advanced Video Codec\nFormat profile                           : &lt;a class=&quot;__cf_email__&quot; href=&quot;/cdn-cgi/l/email-protection&quot; data-cfemail=&quot;82caebe5eac2ceb6acb3&quot;&gt;[email&amp;#160;protected]&lt;/a&gt;&lt;script cf-hash='f9e31' type=&quot;text/javascript&quot;&gt;\n/* &lt;![CDATA[ */!function(){try{var t=&quot;currentScript&quot;in document?document.currentScript:function(){for(var t=document.getElementsByTagName(&quot;script&quot;),e=t.length;e--;)if(t[e].getAttribute(&quot;cf-hash&quot;))return t[e]}();if(t&amp;&amp;t.previousSibling){var e,r,n,i,c=t.previousSibling,a=c.getAttribute(&quot;data-cfemail&quot;);if(a){for(e=&quot;&quot;,r=parseInt(a.substr(0,2),16),n=2;a.length-n;n+=2)i=parseInt(a.substr(n,2),16)^r,e+=String.fromCharCode(i);e=document.createTextNode(e),c.parentNode.replaceChild(e,c)}}}catch(u){}}();/* ]]&gt; */&lt;/script&gt;\nFormat settings, CABAC                   : Yes\nFormat settings, ReFrames                : 4 frames\nCodec ID                                 : V_MPEG4/ISO/AVC\nDuration                                 : 2h 0mn\nBit rate mode                            : Variable\nBit rate                                 : 2 800 Kbps\nMaximum bit rate                         : 40.0 Mbps\nWidth                                    : 1 920 pixels\nHeight                                   : 800 pixels\nDisplay aspect ratio                     : 2.40:1\nFrame rate mode                          : Constant\nFrame rate                               : 23.976 fps\nColor space                              : YUV\nChroma subsampling                       : 4:2:0\nBit depth                                : 8 bits\nScan type                                : Progressive\nBits/(Pixel*Frame)                       : 0.076\nStream size                              : 2.30 GiB (74%)\nWriting library                          : x264 core 138 r2358 9e941d1\nEncoding settings                        : cabac=1 / ref=5 / deblock=1:0:0 / analyse=0x3:0x133 / me=umh / subme=10 / psy=1 / psy_rd=1.00:0.00 / mixed_ref=1 / me_range=24 / chroma_me=1 / trellis=2 / 8x8dct=1 / cqm=0 / deadzone=21,11 / fast_pskip=1 / chroma_qp_offset=-2 / threads=18 / lookahead_threads=1 / sliced_threads=0 / slices=4 / nr=0 / decimate=1 / interlaced=0 / bluray_compat=1 / constrained_intra=0 / bframes=3 / b_pyramid=1 / b_adapt=2 / b_bias=0 / direct=3 / weightb=1 / open_gop=1 / weightp=1 / keyint=24 / keyint_min=1 / scenecut=40 / intra_refresh=0 / rc_lookahead=24 / rc=2pass / mbtree=1 / bitrate=2800 / ratetol=1.0 / qcomp=0.60 / qpmin=0 / qpmax=69 / qpstep=4 / cplxblur=20.0 / qblur=0.5 / vbv_maxrate=40000 / vbv_bufsize=30000 / nal_hrd=vbr / ip_ratio=1.40 / aq=1:1.00\nLanguage                                 : English\nDefault                                  : Yes\nForced                                   : No\n\nAudio #1\nID                                       : 2\nFormat                                   : AC-3\nFormat/Info                              : Audio Coding 3\nMode extension                           : CM (complete main)\nFormat settings, Endianness              : Big\nCodec ID                                 : A_AC3\nDuration                                 : 2h 0mn\nBit rate mode                            : Constant\nBit rate                                 : 448 Kbps\nChannel(s)                               : 6 channels\nChannel positions                        : Front: L C R, Side: L R, LFE\nSampling rate                            : 48.0 KHz\nBit depth                                : 16 bits\nCompression mode                         : Lossy\nStream size                              : 385 MiB (12%)\nTitle                                    : DD5.1 INaM\nLanguage                                 : English\nDefault                                  : Yes\nForced                                   : No\n\nAudio #2\nID                                       : 3\nFormat                                   : AC-3\nFormat/Info                              : Audio Coding 3\nMode extension                           : CM (complete main)\nFormat settings, Endianness              : Big\nCodec ID                                 : A_AC3\nDuration                                 : 2h 0mn\nBit rate mode                            : Constant\nBit rate                                 : 448 Kbps\nChannel(s)                               : 6 channels\nChannel positions                        : Front: L C R, Side: L R, LFE\nSampling rate                            : 48.0 KHz\nBit depth                                : 16 bits\nCompression mode                         : Lossy\nDelay relative to video                  : 3s 600ms\nStream size                              : 385 MiB (12%)\nTitle                                    : DD5.1 INaM\nLanguage                                 : Hindi\nDefault                                  : No\nForced                                   : No\n\nText\nID                                       : 4\nFormat                                   : PGS\nMuxing mode                              : zlib\nCodec ID                                 : S_HDMV/PGS\nCodec ID/Info                            : The same subtitle format used on BDs/HD-DVDs\nTitle                                    : eng\nLanguage                                 : English\nDefault                                  : Yes\nForced                                   : No\n\n\n\n\n\n &lt;a href=&quot;\nhttp://someimage.com/g4zvcaA&quot; rel=&quot;nofollow&quot; target=&quot;_NEW&quot;&gt;\nhttp://someimage.com/g4zvcaA&lt;/a&gt; &lt;a href=&quot;\nhttp://someimage.com/6aWqhrw&quot; rel=&quot;nofollow&quot; target=&quot;_NEW&quot;&gt;\nhttp://someimage.com/6aWqhrw&lt;/a&gt; &lt;a href=&quot;\nhttp://someimage.com/o5Y2uPb&quot; rel=&quot;nofollow&quot; target=&quot;_NEW&quot;&gt;\nhttp://someimage.com/o5Y2uPb&lt;/a&gt; &lt;a href=&quot;\nhttp://someimage.com/JaajX92&quot; rel=&quot;nofollow&quot; target=&quot;_NEW&quot;&gt;\nhttp://someimage.com/JaajX92&lt;/a&gt; &lt;a href=&quot;\nhttp://someimage.com/DRMbJHw&quot; rel=&quot;nofollow&quot; target=&quot;_NEW&quot;&gt;\nhttp://someimage.com/DRMbJHw&lt;/a&gt; &lt;a href=&quot;\nhttp://someimage.com/9ZbnsC1&quot; rel=&quot;nofollow&quot; target=&quot;_NEW&quot;&gt;\nhttp://someimage.com/9ZbnsC1&lt;/a&gt; &lt;a href=&quot;\nhttp://someimage.com/eYMufiG&quot; rel=&quot;nofollow&quot; target=&quot;_NEW&quot;&gt;\nhttp://someimage.com/eYMufiG&lt;/a&gt; &lt;a href=&quot;\nhttp://someimage.com/kfXUpTp&quot; rel=&quot;nofollow&quot; target=&quot;_NEW&quot;&gt;\nhttp://someimage.com/kfXUpTp&lt;/a&gt; &lt;a href=&quot;\nhttp://someimage.com/l0ey4Sl&quot; rel=&quot;nofollow&quot; target=&quot;_NEW&quot;&gt;\nhttp://someimage.com/l0ey4Sl&lt;/a&gt; &lt;a href=&quot;\nhttp://someimage.com/GrOjilt&quot; rel=&quot;nofollow&quot; target=&quot;_NEW&quot;&gt;\nhttp://someimage.com/GrOjilt&lt;/a&gt; &lt;a href=&quot;\nhttp://someimage.com/ZIUxBtm&quot; rel=&quot;nofollow&quot; target=&quot;_NEW&quot;&gt;\nhttp://someimage.com/ZIUxBtm&lt;/a&gt; &lt;a href=&quot;\nhttp://someimage.com/5zdTwUg&quot; rel=&quot;nofollow&quot; target=&quot;_NEW&quot;&gt;\nhttp://someimage.com/5zdTwUg&lt;/a&gt; &lt;a href=&quot;\nhttp://someimage.com/XfnBNht&quot; rel=&quot;nofollow&quot; target=&quot;_NEW&quot;&gt;\nhttp://someimage.com/XfnBNht&lt;/a&gt; &lt;a href=&quot;\nhttp://someimage.com/STo38sL&quot; rel=&quot;nofollow&quot; target=&quot;_NEW&quot;&gt;\nhttp://someimage.com/STo38sL&lt;/a&gt;\n\n","torrent":{"xt":"urn:btih:e5fd308a1d5c80aa9376bb38d08b5b6c2f44c342","amp;dn":"Blade.1998.1080p.BDRip+English+Hindi+x264+AC3+DD.5.1+INaM","amp;tr":["udp%3A%2F%2Ftracker.openbittorrent.com%3A80","udp%3A%2F%2Fopen.demonii.com%3A1337","udp%3A%2F%2Ftracker.coppersurfer.tk%3A6969","udp%3A%2F%2Fexodus.desync.com%3A6969"],"infoHash":"e5fd308a1d5c80aa9376bb38d08b5b6c2f44c342","infoHashBuffer":{"type":"Buffer","data":[229,253,48,138,29,92,128,170,147,118,187,56,208,139,91,108,47,68,195,66]},"announce":[],"urlList":[]}}